<?xml version="1.0" standalone="no"?>
<!DOCTYPE svg PUBLIC "-//W3C//DTD SVG 1.1//EN" "http://www.w3.org/Graphics/SVG/1.1/DTD/svg11.dtd">
<svg t="1527667489172" class="icon" style="" viewBox="0 0 1024 1024" version="1.1" xmlns="http://www.w3.org/2000/svg" p-id="3300" xmlns:xlink="http://www.w3.org/1999/xlink" width="200" height="200">
	<defs>
		<style type="text/css">
		</style>
	</defs>
	<path d="M512 42.666667C298.666667 42.666667 128 213.333333 128 426.666667L128 725.333333C128 796.16 185.173333 853.333333 256 853.333333L384 853.333333 384 512 213.333333 512 213.333333 426.666667C213.333333 261.546667 346.88 128 512 128 677.12 128 810.666667 261.546667 810.666667 426.666667L810.666667 512 640 512 640 853.333333 768 853.333333C838.826667 853.333333 896 796.16 896 725.333333L896 426.666667C896 213.333333 724.053333 42.666667 512 42.666667Z" p-id="3301" fill="#ffffff">
	</path>
</svg>
